HIERARCHY
ROOT Hips
{
	OFFSET 0.00 0.00 0.00
	CHANNELS 6 Xposition Yposition Zposition Yrotation Xrotation Zrotation
	JOINT Spine
	{
		OFFSET	0.0000	9.2263	1.5771
		CHANNELS 3 Xrotation Yrotation Zrotation
		JOINT Spine1
		{
			OFFSET	0.0000	16.2540	-0.1656
			CHANNELS 3 Xrotation Yrotation Zrotation
			JOINT Spine2
			{
				OFFSET	0.0000	13.6396	-1.2923
				CHANNELS 3 Xrotation Yrotation Zrotation
				JOINT Neck
				{
					OFFSET	0.0000	13.8774	-4.3542
					CHANNELS 3 Xrotation Yrotation Zrotation
					JOINT Neck1
					{
						OFFSET	0.0000	4.3400	0.9269
						CHANNELS 3 Xrotation Yrotation Zrotation
						JOINT Head
						{
							OFFSET	0.0000	4.0266	0.8585
							CHANNELS 3 Xrotation Yrotation Zrotation
							End Site
							{
								OFFSET 0.0000 23.0297 0.1231
							}
						}
					}
				}
				JOINT LeftShoulder
				{
					OFFSET	6.1442	10.1870	-3.7932
					CHANNELS 3 Zrotation Xrotation Yrotation
					JOINT LeftArm
					{
						OFFSET	12.3191	-1.1130	-1.7935
						CHANNELS 3 Zrotation Xrotation Yrotation
						JOINT LeftForeArm
						{
							OFFSET	27.6870	0.0000	0.0000
							CHANNELS 3 Xrotation Zrotation Yrotation
							JOINT LeftHand
							{
								OFFSET	27.8738	0.0000	0.0000
								CHANNELS 3 Zrotation Yrotation Xrotation
								End Site
								{
									OFFSET	10.0000	0.0000	0.0000
								}
							}
						}
					}
				}
				JOINT RightShoulder
				{
					OFFSET	-6.1402	10.1870	-3.7932
					CHANNELS 3 Zrotation Xrotation Yrotation
					JOINT RightArm
					{
						OFFSET	-12.3231	-1.1130	-1.7935
						CHANNELS 3 Zrotation Xrotation Yrotation
						JOINT RightForeArm
						{
							OFFSET	-27.6870	0.0000	0.0000
							CHANNELS 3 Xrotation Zrotation Yrotation
							JOINT RightHand
							{
								OFFSET	-27.8738	0.0000	0.0000
								CHANNELS 3 Zrotation Yrotation Xrotation
								End Site
								{
									OFFSET	-10.0000	0.0000	0.0000
								}
							}
						}
					}
				}
			}
		}
	}
	JOINT LeftUpLeg
	{
		OFFSET	9.6338	-3.2733	0.0000
		CHANNELS 3 Xrotation Yrotation Zrotation
		JOINT LeftLeg
		{
			OFFSET	0.0000	-41.7300	-1.7300
			CHANNELS 3 Xrotation Yrotation Zrotation
			JOINT LeftFoot
			{
				OFFSET	0.0126	-39.1900	-0.8477
				CHANNELS 3 Xrotation Yrotation Zrotation
				JOINT LeftToeBase
				{
					OFFSET	-0.1833	-12.1931	8.2823
					CHANNELS 3 Xrotation Yrotation Zrotation
					End Site
					{
						OFFSET 0.0000 0.0000 10.1681
					}
				}
			}
		}
	}
	JOINT RightUpLeg
	{
		OFFSET	-9.6338	-3.2733	0.0000
		CHANNELS 3 Xrotation Yrotation Zrotation
		JOINT RightLeg
		{
			OFFSET	0.0000	-41.7300	-1.7300
			CHANNELS 3 Xrotation Yrotation Zrotation
			JOINT RightFoot
			{
				OFFSET	0.0126	-39.1900	-0.8477
				CHANNELS 3 Xrotation Yrotation Zrotation
				JOINT RightToeBase
				{
					OFFSET	-0.1833	-12.1931	8.2823
					CHANNELS 3 Xrotation Yrotation Zrotation
					End Site
					{
						OFFSET 0.0032 0.0000 10.1681
					}
				}
			}
		}
	}
}
MOTION
Frames: 18
Frame Time: 0.0333333
-12.5405	95.5548	10.6261	5.5864	2.7517	2.4172	-1.3751	0.0454	-0.3793	-2.75	0.0984	-0.741	-2.75	0.0984	-0.741	10.366	1.6513	-2.7609	0	0	0	-14.6821	-11.0057	4.2346	33.313	4.9492	-3.1716	14.4149	-42.2043	-13.2173	-10.7406	-0.7826	-59.3994	47.2904	-13.1683	6.1839																																														-36.5762	5.2558	7.3714	-23.1959	-34.5961	13.7024	-15.6709	-0.4576	35.6807	-45.1641	10.888	-12.8752																																														0.2729	-5.5967	6.328	1.6225	-1.2045	-0.0858	-1.1676	7.3171	-14.0597	-4.1543	0.286	7.8033	-11.4649	-19.495	-6.2345	20.1595	-0.8798	0.1962	-12.6679	-0.7035	1.6969	-0.1033	-0.1597	-0.7375
-12.5323	95.5623	10.6635	5.3654	3.1974	2.4449	-1.4401	0.067	-0.3345	-2.8798	0.1408	-0.6482	-2.8798	0.1408	-0.6482	10.1652	1.6604	-2.5885	0	0	0	-15.3451	-10.9024	4.0313	33.8254	5.0649	-2.9341	18.0683	-38.7514	-8.7815	-10.6436	-0.8099	-62.8082	51.5703	-24.2331	11.2651																																														-36.8858	5.3199	7.2659	-26.5725	-28.6757	8.3516	-15.6775	-0.5098	40.6544	-48.128	27.9155	-6.0406																																														-0.1843	-5.1963	6.2932	1.6784	-1.2196	-0.0857	-1.1074	7.1408	-14.1348	-4.2936	0.2604	7.9149	-11.9759	-19.8397	-6.3677	20.1295	-0.8218	0.202	-12.6487	-0.1137	1.7341	-0.1622	-0.1976	-0.9342
-12.5286	95.6404	10.7084	5.1409	3.6597	2.5191	-1.4763	0.0795	-0.3013	-2.9523	0.1649	-0.5761	-2.9523	0.1649	-0.5761	9.6981	1.6628	-2.5294	0	0	0	-15.9549	-10.8325	3.8741	33.9352	5.1191	-2.7983	21.3999	-34.9148	-5.8824	-10.6686	-0.7618	-56.6684	52.4209	-28.8657	12.2105																																														-37.2296	5.4003	7.1283	-30.6157	-22.6055	4.3013	-15.5993	-0.4595	36.0443	-45.4138	41.121	-2.1571																																														-0.7035	-4.5922	6.24	1.699	-1.2603	-0.0866	-0.5586	6.6807	-14.4505	-4.9248	0.1482	8.3417	-12.3189	-20.0887	-6.4699	19.7207	-0.6994	0.2045	-12.3737	0.4173	1.9239	-0.3773	-0.3255	-1.5814
-12.5456	95.7992	10.6819	4.8824	3.9333	2.6985	-1.4364	0.0724	-0.2907	-2.8725	0.1498	-0.5438	-2.8725	0.1498	-0.5438	9.055	1.6865	-2.602	0	0	0	-16.5724	-10.6919	3.8213	33.5147	5.0683	-2.8448	23.2431	-31.305	-4.9436	-10.7657	-0.6223	-43.1251	50.4591	-23.2817	10.0712																																														-37.2608	5.4346	7.058	-33.7673	-17.9432	2.6592	-15.4778	-0.3265	24.6652	-45.1426	41.4506	-2.6698																																														-1.1318	-3.9821	6.1124	1.726	-1.3695	-0.092	0.5677	6.1088	-14.9783	-6.1064	-0.0089	9.0237	-12.3214	-20.0716	-6.5471	18.8931	-0.5166	0.2028	-11.8007	0.7291	2.1852	-0.7204	-0.5162	-2.5981
-12.5743	96.0051	10.5924	4.5747	4.2377	2.9572	-1.3654	0.0568	-0.2929	-2.7306	0.1181	-0.5312	-2.7306	0.118	-0.5312	8.3889	1.7365	-2.8223	0	0	0	-17.0466	-10.4748	3.9245	32.6679	4.9348	-3.0396	23.7456	-27.9105	-5.6556	-10.8448	-0.3978	-25.7269	44.4991	-10.1256	3.3012																																														-36.677	5.3774	7.1324	-35.4849	-15.5823	2.5683	-15.3737	-0.1612	11.7853	-50.6769	25.4954	-8.0509																																														-1.7396	-3.1909	5.9246	1.8926	-1.4575	-0.0896	2.0642	5.291	-15.5288	-7.4842	-0.2127	9.4506	-12.324	-19.9765	-6.6664	17.8602	-0.2923	0.1932	-11.0385	1.0364	2.5557	-1.1286	-0.7411	-3.8315
-12.5902	96.2164	10.5109	4.2073	4.7773	3.2083	-1.3323	0.0574	-0.292	-2.6644	0.1193	-0.5071	-2.6644	0.1193	-0.5071	7.8615	1.7889	-3.1583	0	0	0	-17.2347	-10.2762	4.1295	31.5205	4.761	-3.3128	23.7075	-24.8772	-6.7155	-10.8415	-0.1583	-9.5126	31.7359	0.335	-11.2757																																														-35.5301	5.2512	7.3202	-35.8054	-15.2802	2.7509	-15.3061	-0.0268	1.9505	-44.9008	4.7649	-17.0013																																														-2.5552	-2.049	5.7879	1.963	-1.6325	-0.0973	3.6624	4.1679	-16.2076	-8.9304	-0.3741	10.0285	-12.5756	-20.1165	-6.8466	16.7849	-0.0483	0.1756	-10.2179	1.6636	3.0795	-1.5422	-0.9767	-5.1358
-12.5794	96.4089	10.4867	3.7726	5.4389	3.3847	-1.3513	0.0968	-0.2813	-2.7023	0.1986	-0.4671	-2.7023	0.1986	-0.4671	7.6034	1.814	-3.5086	0	0	0	-17.1878	-10.203	4.3569	30.1879	4.5734	-3.6253	23.3173	-23.1105	-7.011	-10.7649	-0.0074	0.0001	17.3717	6.5351	-26.8758																																														-34.1545	5.1203	7.522	-35.2058	-16.0708	2.671	-15.2484	0.0021	0.0001	-20.9447	-2.0156	-33.7918																																														-3.4263	-0.7487	5.7135	2.0181	-1.7927	-0.1035	5.0646	3.0027	-16.7737	-10.2039	-0.537	10.5259	-12.881	-20.5115	-7.0135	15.634	0.1987	0.158	-9.428	2.5798	3.7562	-1.9273	-1.1966	-6.3707
-12.5572	96.5615	10.515	3.3211	5.9787	3.4797	-1.39	0.1767	-0.2776	-2.7796	0.3593	-0.4458	-2.7796	0.3593	-0.4458	7.6839	1.8016	-3.7417	0	0	0	-17.0035	-10.2916	4.6044	29.0118	4.4054	-3.9033	22.1573	-23.5202	-6.6914	-10.6393	-0.008	0.0001	10.724	12.5668	-34.527																																														-32.9699	5.0284	7.6605	-34.0266	-17.0288	2.3807	-15.1553	0.0031	0.0001	-11.4503	-3.9417	-41.3521																																														-4.1171	0.3809	5.6855	2.13	-1.8995	-0.1053	6.1258	2.0918	-17.1459	-11.2204	-0.7064	10.8743	-13.033	-20.8632	-7.1037	14.5758	0.4472	0.1557	-8.7541	3.4142	4.4164	-2.2726	-1.3909	-7.4612
-12.5514	96.6554	10.5692	2.959	6.2873	3.5145	-1.4239	0.2685	-0.2962	-2.8473	0.544	-0.4745	-2.8473	0.544	-0.4745	8.1069	1.7657	-3.7828	0	0	0	-16.6565	-10.4788	4.8648	28.4213	4.3096	-4.0198	20.0534	-25.8409	-6.5584	-10.4903	-0.0082	0.0001	10.5776	12.9814	-34.7563																																														-32.3042	4.986	7.7085	-32.3603	-17.8467	2.1128	-15.0444	0.0036	0.0001	-8.3104	-7.2578	-45.3974																																														-4.443	1.1929	5.707	2.0973	-1.9795	-0.1089	6.8782	1.4746	-17.4013	-11.9372	-0.8275	11.1457	-13.0103	-20.9571	-7.092	13.8271	0.6075	0.1637	-8.3014	3.8701	4.8371	-2.4946	-1.5071	-8.1572
-12.5719	96.6788	10.621	2.7431	6.3749	3.5314	-1.4487	0.3295	-0.3318	-2.8965	0.6669	-0.5419	-2.8965	0.6669	-0.5419	8.8048	1.7313	-3.6695	0	0	0	-16.1019	-10.6369	5.0135	28.4052	4.2982	-3.936	17.3551	-28.6799	-7.0915	-10.3238	-0.06	-3.1639	14.8709	12.8978	-29.0704																																														-32.2008	4.9886	7.6666	-30.4381	-18.7215	2.3058	-14.9234	0.0037	0.0001	-9.429	-12.1628	-46.0046																																														-4.5249	1.6218	5.742	2.1116	-2.0617	-0.1161	7.1632	1.181	-17.5555	-12.2837	-0.8572	11.3252	-12.9648	-20.8966	-7.0545	13.5854	0.5984	0.1651	-8.1792	4.0277	4.8763	-2.5085	-1.5026	-8.2149
-12.6048	96.6421	10.6359	2.6141	6.2408	3.5469	-1.4515	0.3369	-0.363	-2.902	0.6821	-0.6036	-2.902	0.6821	-0.6036	9.6254	1.7166	-3.504	0	0	0	-15.4554	-10.6641	4.9122	28.458	4.3127	-3.78	14.8138	-30.8476	-8.1607	-10.1452	-0.1368	-7.9028	18.434	12.0403	-22.8429																																														-32.3642	5.0198	7.5643	-28.6203	-19.8239	3.4641	-14.796	0.0036	0.0001	-13.2827	-16.9059	-43.7462																																														-4.3636	1.5219	5.7259	2.1859	-2.0705	-0.1168	7.0278	1.4172	-17.5089	-12.2481	-0.8387	11.2689	-12.9895	-20.8607	-7.085	13.8973	0.5365	0.1621	-8.3906	4.1221	4.6752	-2.4387	-1.4523	-7.9801
-12.6375	96.5765	10.5827	2.4742	5.8961	3.5254	-1.4071	0.3055	-0.3732	-2.8132	0.6188	-0.6259	-2.8132	0.6188	-0.6259	10.3584	1.7235	-3.3523	0	0	0	-14.9514	-10.5616	4.5996	28.1525	4.2897	-3.6996	13.0021	-32.2909	-9.5067	-9.9601	-0.195	-11.5583	19.0949	9.7307	-19.8145																																														-32.3992	5.0505	7.4578	-27.1606	-21.0304	5.5921	-14.6657	0.0033	0.0001	-17.7744	-19.3919	-40.1695																																														-3.8955	0.806	5.6575	2.149	-1.9465	-0.1049	6.7274	2.3306	-17.2172	-11.9544	-0.8382	10.9389	-12.9576	-20.8371	-7.1171	14.4537	0.4802	0.158	-8.7099	4.2123	4.3729	-2.3407	-1.3917	-7.6383
-12.6741	96.5106	10.4635	2.3072	5.4595	3.4443	-1.3112	0.2668	-0.3636	-2.6216	0.5401	-0.6118	-2.6216	0.5401	-0.6118	10.8274	1.7421	-3.2096	0	0	0	-14.731	-10.4098	4.2661	27.5094	4.2245	-3.7088	11.7651	-33.497	-11.063	-9.7681	-0.2363	-14.2424	18.6913	8.6104	-18.5627																																														-32.1141	5.0582	7.3899	-26.1407	-22.0015	8.0276	-14.5323	0.0029	0.0001	-19.7232	-18.232	-37.6572																																														-3.3494	-0.2897	5.6113	2.1388	-1.7883	-0.0904	6.3831	3.6579	-16.8247	-11.6122	-0.848	10.5269	-12.819	-20.7356	-7.0626	14.9631	0.4509	0.1558	-8.9537	4.224	4.0828	-2.2595	-1.3448	-7.3483
-12.7209	96.4637	10.3143	2.1702	5.1124	3.3351	-1.1993	0.2386	-0.347	-2.3978	0.4826	-0.5853	-2.3978	0.4826	-0.5853	10.9876	1.7641	-3.0501	0	0	0	-14.7306	-10.2731	4.0555	26.7843	4.1519	-3.7292	10.5741	-34.5457	-12.6724	-9.5631	-0.2725	-16.6959	18.9023	8.186	-17.41																																														-31.5766	5.0444	7.3608	-25.4866	-22.4216	10.1698	-14.3916	-0.007	0.7226	-18.5226	-9.8512	-34.4393																																														-2.9353	-1.2583	5.6361	2.1064	-1.6996	-0.0844	6.1714	4.7984	-16.5307	-11.3806	-0.8287	10.2324	-12.6839	-20.6199	-6.9428	15.2975	0.4431	0.157	-9.0629	4.1965	3.8763	-2.2186	-1.3233	-7.1902
-12.7673	96.4404	10.1642	2.0841	4.9545	3.2465	-1.1173	0.2242	-0.3343	-2.2339	0.4532	-0.565	-2.2339	0.4532	-0.565	10.9401	1.787	-2.875	0	0	0	-14.7905	-10.1585	3.9698	26.1392	4.0936	-3.7064	9.0503	-35.1728	-13.9771	-9.3372	-0.3174	-19.8536	19.6416	7.4834	-15.8258																																														-30.9499	5.0225	7.3447	-24.8664	-22.31	11.99	-14.237	-0.0275	2.2257	-18.2804	-5.3884	-30.802																																														-2.8022	-1.7688	5.6979	2.1122	-1.678	-0.0844	6.1139	5.403	-16.3612	-11.2763	-0.7952	10.0412	-12.7045	-20.6277	-6.8636	15.5164	0.4648	0.1626	-9.0798	4.2708	3.8076	-2.2335	-1.3329	-7.2186
-12.7916	96.4371	10.0127	1.9941	4.9478	3.1779	-1.0824	0.228	-0.3243	-2.1641	0.4606	-0.5477	-2.1641	0.4606	-0.5477	10.8542	1.8098	-2.7052	0	0	0	-14.8387	-10.0522	3.9366	25.5954	4.0486	-3.6385	6.801	-35.3925	-14.9142	-9.0846	-0.3797	-24.4526	20.2988	6.2933	-13.7425																																														-30.3412	5.0021	7.3223	-23.4915	-22.0218	13.6217	-14.0648	-0.0643	4.9382	-19.3673	-2.5764	-26.6344																																														-2.8226	-1.9039	5.7467	2.0271	-1.6323	-0.0805	6.207	5.6323	-16.2041	-11.2085	-0.7978	9.8355	-12.847	-20.7528	-6.8317	15.6048	0.5077	0.1696	-8.9977	4.4781	3.817	-2.2779	-1.3576	-7.3298
-12.784	96.4405	9.8424	1.8494	4.9852	3.1063	-1.0777	0.2563	-0.3117	-2.1546	0.5173	-0.5243	-2.1546	0.5173	-0.5243	10.8636	1.8318	-2.5533	0	0	0	-14.9351	-9.9424	3.8815	25.146	4.0111	-3.5357	3.148	-35.5847	-15.9978	-8.8002	-0.4598	-30.7462	20.6178	4.7216	-10.9346																																														-29.7803	4.9848	7.2885	-20.2741	-21.8388	14.9389	-13.8843	-0.1457	11.0236	-18.829	0.0255	-22.1205																																														-2.9341	-1.9618	5.7665	2.0267	-1.5603	-0.0722	6.2581	5.8602	-16.0171	-11.1099	-0.837	9.6093	-13.019	-20.837	-6.7972	15.6179	0.5362	0.1732	-8.8379	4.6876	3.8034	-2.2847	-1.3622	-7.3279
-12.7522	96.4405	9.6449	1.6756	4.9859	3.027	-1.0782	0.3012	-0.2924	-2.1556	0.6069	-0.4872	-2.1556	0.6069	-0.4872	11.0139	1.8584	-2.4197	0	0	0	-15.151	-9.7941	3.7467	24.8037	3.9798	-3.4029	-2.4459	-35.8376	-17.7003	-8.4732	-0.5584	-38.4724	20.503	2.8849	-7.4428																																														-29.2799	4.9708	7.2444	-14.6476	-21.6874	15.8212	-13.7253	-0.2834	21.3083	-15.9368	1.5621	-17.2764																																														-3.0135	-2.0725	5.7743	2.0365	-1.5024	-0.0655	6.263	6.1851	-15.8493	-10.9837	-0.8734	9.4442	-13.1656	-20.7786	-6.7412	15.6407	0.5492	0.1754	-8.6604	4.7736	3.7511	-2.2609	-1.3503	-7.2388
